<svg width="60" height="60" viewBox="0 0 60 60" fill="none" xmlns="http://www.w3.org/2000/svg">
<path fill-rule="evenodd" clip-rule="evenodd" d="M29.9747 60C13.4053 59.9842 -0.0157756 46.5442 1.39176e-05 29.9747C0.0126455 13.4053 13.4526 -0.0157756 30.0221 1.39176e-05C46.5821 0.0126455 60 13.44 60 30C59.9747 46.5663 46.5442 59.9842 29.9747 60Z" fill="#EFA80A"/>
<path fill-rule="evenodd" clip-rule="evenodd" d="M31.0203 37.9874H27.4203V31.0211H31.6014C32.5771 31.0211 36.2435 31.3463 36.2435 33.9484C36.2435 36.5474 34.5066 38.0127 31.0203 38.0127V37.9874ZM27.4203 21.2916H29.7445C31.3677 21.2916 34.5729 21.5727 34.5729 24.219C34.6835 25.9463 33.4361 27.459 31.7182 27.6769H27.4203V21.2916ZM38.0782 28.539C40.0866 27.4053 41.1698 25.1442 40.7971 22.8706C40.3329 19.3653 36.1519 18.0421 32.855 17.7642V12.4937H29.6056V17.7169H27.4203V12.4937H24.1708V17.7169H17.6245V21.0832H20.0592C21.1519 21.0832 21.6856 21.4084 21.6856 22.2895V36.7558C21.6856 37.9653 21.0856 38.3348 20.4319 38.3348H17.9466V41.7705H24.2624V47.1137H27.5371V41.7705H29.7224V47.1137H32.9024V41.7705H33.5971C40.2856 41.7705 42.515 38.499 42.515 34.04C42.4613 31.4127 40.6392 29.1484 38.0782 28.539Z" fill="white"/>
</svg>
