<svg width="60" height="60" viewBox="0 0 60 60" fill="none" xmlns="http://www.w3.org/2000/svg">
<path d="M30 60C46.5685 60 60 46.5685 60 30C60 13.4315 46.5685 0 30 0C13.4315 0 0 13.4315 0 30C0 46.5685 13.4315 60 30 60Z" fill="#908F8F"/>
<path fill-rule="evenodd" clip-rule="evenodd" d="M31.8273 7.05884H28.3621L14.1177 32.0088L28.3621 50.6575H31.8273L45.8824 32.0088L31.8273 7.05884ZM27.8202 25.7448L19.7233 28.8581L27.8202 13.91V25.7448ZM28.443 29.481V34.4637L20.9689 31.9724L28.443 29.481ZM31.5572 29.481L39.0312 32.2837L31.5572 35.0865V29.481ZM39.6541 28.8581L31.5572 25.7824V13.91L39.6541 28.8581ZM29.7731 47.5433L20.9689 35.7094L29.7883 39.0128L38.4084 35.78L29.7731 47.5433Z" fill="white"/>
</svg>
