<svg width="26" height="26" viewbox="0 0 16 16" fill="none" xmlns="http://www.w3.org/2000/svg">
<path fill-rule="evenodd" clip-rule="evenodd" d="M15.75 8C15.75 12.2812 12.2812 15.75 8 15.75C3.71875 15.75 0.25 12.2812 0.25 8C0.25 3.71875 3.71875 0.25 8 0.25C12.2812 0.25 15.75 3.71875 15.75 8ZM8.53125 11.5594L12.7656 7.325C13.0594 7.03125 13.0594 6.55625 12.7656 6.26562L12.2344 5.73438C11.9406 5.44062 11.4656 5.44062 11.175 5.73438L8 8.90938L4.825 5.73438C4.53125 5.44062 4.05625 5.44062 3.76562 5.73438L3.23438 6.26562C2.94062 6.55937 2.94062 7.03437 3.23438 7.325L7.46875 11.5594C7.7625 11.8531 8.2375 11.8531 8.53125 11.5594Z" fill="#52AFEE" />
</svg>
